Coordinates
version=1
nRows=65
nColumns=12
inDegrees=yes

Units are S.I. units (second, meters, Newtons, ...)
Angles are in degrees

endheader
time	SC_y	SC_z	SC_x	AC_y	AC_z	AC_x	GH_y	GH_z	GH_yy	EL_x	PS_y
       0.0              -49.57          4.913           59.2          37.13        -0.6966         -10.92          85.84         -8.323          105.2          35.38          6.709
   0.02654              -49.57          4.915           59.2          37.13        -0.6951         -10.91          85.82         -8.317          105.2          35.39          6.713
   0.05308              -49.57          4.917          59.19          37.13        -0.6935         -10.91           85.8         -8.311          105.2          35.41          6.718
   0.07962              -49.57          4.919          59.18          37.13        -0.6919         -10.91          85.78         -8.303          105.2          35.42          6.723
    0.1062              -49.56          4.921          59.17          37.13        -0.6901          -10.9          85.75         -8.296          105.2          35.44          6.728
    0.1327              -49.56          4.923          59.16          37.13        -0.6882          -10.9          85.73         -8.288          105.1          35.46          6.733
    0.1592              -49.56          4.926          59.15          37.12        -0.6862         -10.89           85.7         -8.279          105.1          35.48          6.739
    0.1858              -49.56          4.928          59.14          37.12         -0.684         -10.89          85.67          -8.27          105.1           35.5          6.746
    0.2123              -49.56          4.931          59.12          37.12        -0.6817         -10.88          85.64          -8.26          105.1          35.52          6.752
    0.2389              -49.55          4.934          59.11          37.12        -0.6792         -10.88          85.61         -8.249          105.1          35.55           6.76
    0.2654              -49.55          4.938          59.09          37.12        -0.6766         -10.87          85.57         -8.238          105.0          35.57          6.768
    0.2919              -49.55          4.941          59.08          37.12        -0.6737         -10.86          85.53         -8.226          105.0           35.6          6.776
    0.3185              -49.55          4.945          59.06          37.12        -0.6706         -10.86          85.49         -8.213          105.0          35.63          6.785
     0.345              -49.54          4.949          59.04          37.12        -0.6673         -10.85          85.44         -8.198          105.0          35.67          6.795
    0.3716              -49.54          4.954          59.02          37.11        -0.6637         -10.84          85.39         -8.183          104.9           35.7          6.806
    0.3981              -49.54          4.958           59.0          37.11        -0.6597         -10.83          85.34         -8.166          104.9          35.74          6.817
    0.4246              -49.53          4.964          58.98          37.11        -0.6555         -10.82          85.28         -8.148          104.9          35.78           6.83
    0.4512              -49.53          4.969          58.95          37.11        -0.6509         -10.81          85.21         -8.128          104.8          35.83          6.844
    0.4777              -49.52          4.976          58.93          37.11        -0.6458          -10.8          85.15         -8.107          104.8          35.88          6.858
    0.5043              -49.52          4.983           58.9           37.1        -0.6402         -10.79          85.07         -8.083          104.7          35.93          6.875
    0.5308              -49.51           4.99          58.86           37.1        -0.6342         -10.77          84.99         -8.057          104.7          35.99          6.893
    0.5573               -49.5          4.998          58.82           37.1        -0.6275         -10.75          84.89         -8.028          104.6          36.06          6.913
    0.5839               -49.5          5.008          58.78          37.09        -0.6201         -10.74          84.79         -7.997          104.5          36.13          6.934
    0.6104              -49.49          5.018          58.74          37.09        -0.6119         -10.72          84.68         -7.962          104.5          36.21          6.959
     0.637              -49.48          5.029          58.69          37.08        -0.6027          -10.7          84.55         -7.923          104.4           36.3          6.985
    0.6635              -49.47          5.042          58.63          37.08        -0.5926         -10.67          84.41         -7.879          104.3           36.4          7.015
      0.69              -49.46          5.056          58.57          37.07        -0.5812         -10.65          84.26         -7.831          104.2          36.51          7.049
    0.7166              -49.45          5.072           58.5          37.07        -0.5684         -10.61          84.08         -7.776          104.1          36.64          7.087
    0.7431              -49.43           5.09          58.42          37.06        -0.5539         -10.58          83.88         -7.714          103.9          36.78           7.13
    0.7697              -49.42           5.11          58.33          37.05        -0.5374         -10.54          83.65         -7.644          103.8          36.94          7.178
    0.7962               -49.4          5.133          58.23          37.04        -0.5187          -10.5           83.4         -7.564          103.6          37.12          7.233
    0.8227              -49.38           5.16          58.11          37.03        -0.4971         -10.45           83.1         -7.472          103.4          37.34          7.297
    0.8493              -49.35          5.191          57.97          37.02        -0.4722         -10.39          82.76         -7.366          103.2          37.58           7.37
    0.8758              -49.33          5.226          57.81          37.01        -0.4433         -10.32          82.36         -7.242          102.9          37.86          7.455
    0.9024              -49.29          5.268          57.63          36.99        -0.4095         -10.24          81.89         -7.098          102.6          38.19          7.555
    0.9289              -49.25          5.318          57.41          36.97        -0.3697         -10.14          81.35         -6.928          102.3          38.59          7.673
    0.9554              -49.21          5.376          57.15          36.95        -0.3223         -10.03          80.69         -6.726          101.8          39.05          7.812
     0.982              -49.15          5.447          56.84          36.92        -0.2655         -9.898          79.91         -6.483          101.3          39.61           7.98
     1.009              -49.09          5.532          56.46          36.89        -0.1968         -9.735          78.97          -6.19          100.7          40.28          8.182
     1.035              -49.01          5.636           56.0          36.85        -0.1129         -9.537          77.81         -5.832          99.92           41.1           8.43
     1.062              -48.91          5.764          55.43           36.8      -0.009335         -9.292          76.39          -5.39          98.98          42.12          8.735
     1.088              -48.78          5.924          54.72          36.74         0.1198         -8.986          74.61         -4.839           97.8          43.39          9.116
     1.115              -48.62          6.125          53.83          36.66         0.2825         -8.601          72.37         -4.144          96.32          44.98          9.596
     1.141              -48.42          6.381          52.69          36.56         0.4893         -8.111          69.53         -3.261          94.44          47.01          10.21
     1.168              -48.17          6.709          51.24          36.43         0.7541         -7.484          65.89         -2.131          92.04          49.61          10.99
     1.194              -47.84           7.13          49.37          36.27          1.094          -6.68          61.21         -0.681          88.95          52.94          11.99
     1.221              -47.42          7.667          46.99          36.06          1.528         -5.653          55.24          1.171           85.0          57.19          13.27
     1.247              -46.89          8.343          43.99           35.8          2.073         -4.361          47.74          3.501          80.04          62.55          14.88
     1.274              -46.24          9.166          40.34          35.48          2.738         -2.787          38.59          6.339          73.99          69.07          16.84
       1.3               -45.5          10.12          36.11          35.12          3.509        -0.9627          27.99          9.629          66.99          76.63          19.11
     1.327              -44.69          11.15          31.52          34.72          4.344          1.013          16.51          13.19           59.4          84.81          21.57
     1.354              -43.88          12.19          26.94          34.32          5.178          2.988          5.028          16.75          51.81           93.0          24.03
      1.38              -43.13          13.14           22.7          33.95          5.949          4.813         -5.574          20.04           44.8          100.6          26.31
     1.407              -42.49          13.96          19.05          33.63          6.614          6.387         -14.72          22.88          38.76          107.1          28.27
     1.433              -41.96          14.64          16.06          33.37          7.159          7.679         -22.23          25.21           33.8          112.4          29.88
      1.46              -41.54          15.18          13.67          33.16          7.593          8.706          -28.2          27.06          29.85          116.7          31.16
     1.486              -41.21           15.6          11.81           33.0          7.933           9.51         -32.87          28.51          26.76          120.0          32.16
     1.513              -40.96          15.93          10.35          32.87          8.198          10.14         -36.51          29.64          24.36          122.6          32.94
     1.539              -40.76          16.18          9.216          32.77          8.404          10.63         -39.36          30.53          22.48          124.6          33.55
     1.566               -40.6          16.38          8.323          32.69          8.567          11.01          -41.6          31.22           21.0          126.2          34.03
     1.592              -40.47          16.54          7.613          32.63          8.696          11.32         -43.37          31.77          19.82          127.5          34.41
     1.619              -40.37          16.67          7.044          32.58            8.8          11.56          -44.8          32.21          18.88          128.5          34.71
     1.645              -40.29          16.78          6.583          32.54          8.884          11.76         -45.95          32.57          18.12          129.3          34.96
     1.672              -40.22          16.86          6.206          32.51          8.953          11.92          -46.9          32.87          17.49          130.0          35.16
     1.699              -40.17          16.93          5.894          32.48          9.009          12.06         -47.68          33.11          16.98          130.6          35.33
